<svg width="20" height="20" viewBox="0 0 20 20" fill="none" xmlns="http://www.w3.org/2000/svg">
<path fill-rule="evenodd" clip-rule="evenodd" d="M16 1H4C2.34315 1 1 2.34315 1 4V16C1 17.6569 2.34315 19 4 19H16C17.6569 19 19 17.6569 19 16V4C19 2.34315 17.6569 1 16 1ZM4 0C1.79086 0 0 1.79086 0 4V16C0 18.2091 1.79086 20 4 20H16C18.2091 20 20 18.2091 20 16V4C20 1.79086 18.2091 0 16 0H4Z" fill="white"/>
<g clip-path="url(#clip0_329_2013)">
<path d="M10 4.6715C11.7366 4.6715 11.9405 4.67924 12.6268 4.7102C13.2616 4.73859 13.6048 4.84438 13.8345 4.9347C14.139 5.05339 14.3557 5.19274 14.5828 5.41981C14.8099 5.64688 14.9518 5.86364 15.0679 6.16812C15.1556 6.39778 15.264 6.74097 15.2924 7.37574C15.3234 8.06213 15.3311 8.26598 15.3311 10.0026C15.3311 11.7392 15.3234 11.943 15.2924 12.6294C15.264 13.2642 15.1582 13.6074 15.0679 13.837C14.9492 14.1415 14.8099 14.3583 14.5828 14.5854C14.3557 14.8124 14.139 14.9543 13.8345 15.0705C13.6048 15.1582 13.2616 15.2666 12.6268 15.295C11.9405 15.3259 11.7366 15.3337 10 15.3337C8.2634 15.3337 8.05955 15.3259 7.37317 15.295C6.73839 15.2666 6.3952 15.1608 6.16554 15.0705C5.86106 14.9518 5.64431 14.8124 5.41723 14.5854C5.19016 14.3583 5.04823 14.1415 4.93212 13.837C4.84438 13.6074 4.73601 13.2642 4.70762 12.6294C4.67666 11.943 4.66892 11.7392 4.66892 10.0026C4.66892 8.26598 4.67666 8.06213 4.70762 7.37574C4.73601 6.74097 4.8418 6.39778 4.93212 6.16812C5.05082 5.86364 5.19016 5.64688 5.41723 5.41981C5.64431 5.19274 5.86106 5.05081 6.16554 4.9347C6.3952 4.84696 6.73839 4.73859 7.37317 4.7102C8.05955 4.67666 8.26598 4.6715 10 4.6715ZM10 3.5C8.23502 3.5 8.0131 3.50774 7.31898 3.53871C6.62743 3.56967 6.15522 3.68063 5.74236 3.84061C5.31402 4.00576 4.95276 4.23025 4.59151 4.5915C4.23025 4.95276 4.00834 5.31659 3.84061 5.74236C3.68063 6.15522 3.56967 6.62743 3.53871 7.32156C3.50774 8.0131 3.5 8.23501 3.5 10C3.5 11.765 3.50774 11.9869 3.53871 12.681C3.56967 13.3726 3.68063 13.8448 3.84061 14.2602C4.00576 14.6886 4.23025 15.0498 4.59151 15.4111C4.95276 15.7723 5.3166 15.9942 5.74236 16.162C6.15522 16.322 6.62743 16.4329 7.32156 16.4639C8.01569 16.4948 8.23502 16.5026 10.0026 16.5026C11.7702 16.5026 11.9895 16.4948 12.6836 16.4639C13.3752 16.4329 13.8474 16.322 14.2628 16.162C14.6912 15.9968 15.0524 15.7723 15.4137 15.4111C15.7749 15.0498 15.9968 14.686 16.1646 14.2602C16.3245 13.8474 16.4355 13.3751 16.4665 12.681C16.4974 11.9869 16.5052 11.7676 16.5052 10C16.5052 8.23243 16.4974 8.0131 16.4665 7.31898C16.4355 6.62743 16.3245 6.15522 16.1646 5.73978C15.9994 5.31143 15.7749 4.95018 15.4137 4.58892C15.0524 4.22767 14.6886 4.00576 14.2628 3.83803C13.85 3.67805 13.3777 3.56709 12.6836 3.53613C11.9869 3.50774 11.765 3.5 10 3.5Z" fill="white"/>
<path d="M9.99998 6.66357C8.15758 6.66357 6.66095 8.15762 6.66095 10.0026C6.66095 11.8476 8.155 13.3416 9.99998 13.3416C11.845 13.3416 13.339 11.8476 13.339 10.0026C13.339 8.15762 11.845 6.66357 9.99998 6.66357ZM9.99998 12.1675C8.80268 12.1675 7.83245 11.1973 7.83245 10C7.83245 8.80272 8.80268 7.83249 9.99998 7.83249C11.1973 7.83249 12.1675 8.80272 12.1675 10C12.1675 11.1973 11.1973 12.1675 9.99998 12.1675Z" fill="white"/>
<path d="M13.4705 7.30856C13.9009 7.30856 14.2498 6.95966 14.2498 6.52928C14.2498 6.09889 13.9009 5.75 13.4705 5.75C13.0401 5.75 12.6913 6.09889 12.6913 6.52928C12.6913 6.95966 13.0401 7.30856 13.4705 7.30856Z" fill="white"/>
</g>
<defs>
<clipPath id="clip0_329_2013">
<rect width="13" height="13" fill="white" transform="translate(3.5 3.5)"/>
</clipPath>
</defs>
</svg>
